<svg width="760" height="300" viewBox="0 0 760 300" fill="none" xmlns="http://www.w3.org/2000/svg" role="img" aria-labelledby="title desc">
  <title id="title">Discord Rich Presence preview</title>
  <desc id="desc">Preview card for Yandex Music Discord RPC</desc>
  <rect width="760" height="300" rx="28" fill="#0B0D12"/>
  <rect x="24" y="24" width="712" height="252" rx="22" fill="#1E2027"/>
  <circle cx="92" cy="92" r="48" fill="#2B2F3A"/>
  <circle cx="92" cy="92" r="41" fill="#7EA1B9"/>
  <path d="M58 99C79 55 107 48 130 73C143 88 131 126 95 132C71 136 50 119 58 99Z" fill="#ADC6D8"/>
  <path d="M66 124C90 115 105 96 124 67C146 91 134 130 100 137C83 140 73 135 66 124Z" fill="#466071"/>
  <circle cx="128" cy="128" r="14" fill="#3FC96D" stroke="#1E2027" stroke-width="6"/>
  <text x="48" y="175" fill="#F5F5F7" font-family="Inter,Segoe UI,Arial,sans-serif" font-size="26" font-weight="700">ownersmc</text>
  <rect x="48" y="196" width="96" height="22" rx="11" fill="#2A2D36"/>
  <text x="60" y="212" fill="#DDE1EA" font-family="Inter,Segoe UI,Arial,sans-serif" font-size="13" font-weight="700">Yandex RPC</text>
  <rect x="164" y="196" width="72" height="22" rx="11" fill="#2A2D36"/>
  <text x="178" y="212" fill="#DDE1EA" font-family="Inter,Segoe UI,Arial,sans-serif" font-size="13" font-weight="700">MIT</text>
  <rect x="276" y="52" width="410" height="62" rx="18" fill="#2A2D36" stroke="#3A3D47"/>
  <text x="300" y="79" fill="#AEB4C1" font-family="Inter,Segoe UI,Arial,sans-serif" font-size="18" font-style="italic">Какой трек играет?</text>
  <text x="300" y="103" fill="#AEB4C1" font-family="Inter,Segoe UI,Arial,sans-serif" font-size="18" font-style="italic">Discord уже показывает.</text>
  <rect x="276" y="138" width="410" height="112" rx="14" fill="#24262E"/>
  <text x="300" y="165" fill="#F5F5F7" font-family="Inter,Segoe UI,Arial,sans-serif" font-size="17" font-weight="700">Слушает YandexM</text>
  <circle cx="660" cy="158" r="3" fill="#C6CAD4"/>
  <circle cx="672" cy="158" r="3" fill="#C6CAD4"/>
  <circle cx="684" cy="158" r="3" fill="#C6CAD4"/>
  <rect x="300" y="180" width="54" height="54" rx="8" fill="#78A445"/>
  <rect x="306" y="186" width="42" height="42" rx="5" fill="#B6463F"/>
  <path d="M306 219L348 190V228H306V219Z" fill="#D9B552"/>
  <path d="M312 190H348V204L318 228H306V198L312 190Z" fill="#3E7E61"/>
  <text x="366" y="194" fill="#F5F5F7" font-family="Inter,Segoe UI,Arial,sans-serif" font-size="17" font-weight="800">OUTTA MUD</text>
  <text x="366" y="215" fill="#D8DCE7" font-family="Inter,Segoe UI,Arial,sans-serif" font-size="15">AQUAKEY, WHITENER</text>
  <text x="366" y="236" fill="#F5F5F7" font-family="Inter,Segoe UI,Arial,sans-serif" font-size="15" font-weight="700">01:39</text>
  <rect x="420" y="229" width="150" height="4" rx="2" fill="#D9DCE5"/>
  <rect x="420" y="229" width="96" height="4" rx="2" fill="#FFFFFF"/>
  <text x="584" y="236" fill="#F5F5F7" font-family="Inter,Segoe UI,Arial,sans-serif" font-size="15" font-weight="700">02:05</text>
</svg>
